# xmcd
#
# Track frame offsets:
#	150
#	14700
#	26230
#	40992
#	58180
#	74262
#	90540
#	103937
#	121570
#	139620
#	159090
#	174140
#	191960
#
# Disc length: 2767
#
# Revision: 1
# Processed by: cddbd v1.5.1PL0 Copyright (c) Steve Scherf et al.
# Submitted via: VisiTrax 2.9.5.180 - For more info visit www.synapsa.com
# Normalized: r0:DSETVAR1
#
DISCID=ad0acd0d
DTITLE=Various Artist - CDX 101 January 1995
DYEAR=1995
DGENRE=
TTITLE0=Brother Phelps - Anyway the wind blows
TTITLE1=Daron Norwood - Bad dog no bicuit
TTITLE2=Tanya Tucker - Between the two of them
TTITLE3=Diamond Rio - Bubba Hyde
TTITLE4=Alabama - Give me one more shot
TTITLE5=Joe Diffie - So help me girl
TTITLE6=Hal Ketchum - Stay forever
TTITLE7=Reba McEntire - The heart is a lonely hunter
TTITLE8=Alison Krauss and Union Station - When you say nothing at all
TTITLE9=Vince Gill - Which bridge to cross (which bridge to burn)
TTITLE10=Dean Chance - Lisa Van Wye - Will you stay with me forever
TTITLE11=Rick Trevino - Looking for the light
TTITLE12=Nathalie Cote - Is she really going out with him
EXTD=
EXTT0=
EXTT1=
EXTT2=
EXTT3=
EXTT4=
EXTT5=
EXTT6=
EXTT7=
EXTT8=
EXTT9=
EXTT10=
EXTT11=
EXTT12=
PLAYORDER=
